<svg xmlns="http://www.w3.org/2000/svg" xmlns:xlink="http://www.w3.org/1999/xlink" version="1.1" x="0px" y="0px" viewBox="0 0 100 125" enable-background="new 0 0 100 100" xml:space="preserve"><path d="M46.35,22.229c-0.634,1.458-1.382,2.785-2.211,3.961c-1.674,2.355-3.535,4.195-5.308,5.86  c-0.078,0.074-0.157,0.146-0.235,0.218c-5.578,4.682-8.05,4.125-8.6,6.253c-0.346,1.337,0.33,2.613,1.553,2.295  c1.727-0.448,2.396-2.356,5.672-4.065c4.842-2.19,11.274-3.35,19.105-3.35c7.734,0,15.123,2.176,20.572,5.546  c0.34,0.074,0.65,0.113,0.938,0.113c0.966,0,1.856-0.417,3.304-2.49c0.748-1.073,3.478-4.572,7.143-4.572  c1.164,0,2.291,0.353,3.352,1.046c4.468,2.921,7.508,9.894,4.863,16.507c-0.181,0.451-0.602,0.76-1.088,0.795  c-0.479,0.036-0.947-0.209-1.191-0.63l-1.117-1.924c-0.396,2.056-1.134,4.506-2.508,6.26c-0.308,0.394-0.816,0.57-1.302,0.453  c-0.485-0.119-0.856-0.511-0.948-1.002l-0.547-2.917c-0.691,1.924-1.583,4.098-2.601,5.898c-1.634,6.052-6.252,11.241-12.576,14.558  c-0.085,0.061-0.175,0.115-0.274,0.155c-0.008,0.003-0.075,0.03-0.195,0.088c-0.076,0.038-0.154,0.075-0.23,0.112  c-1.775,0.905-8.826,5.118-15.234,17.619c-0.838,1.637-1.598,3.042-2.229,4.179h2.822c0.123,0,0.243,0.012,0.361,0.028h3.092  c0,0,0.002,0,0.004,0c0.178,0,1.623,0.033,2.635,1.063c0.428,0.438,0.933,1.223,0.906,2.492c-0.012,0.545-0.457,0.979-1,0.979  c-0.006,0-0.014,0-0.021,0c-0.553-0.011-0.991-0.469-0.979-1.021c0.01-0.467-0.1-0.811-0.334-1.049  c-0.432-0.439-1.201-0.464-1.209-0.464h-0.966c0.034,0.165,0.052,0.337,0.052,0.513c0,1.404-1.138,2.543-2.541,2.543H38.855  c-1.404,0-2.542-1.139-2.542-2.543c0-0.176,0.018-0.348,0.051-0.513H35.14c-0.211,0.003-0.854,0.095-1.218,0.472  c-0.229,0.237-0.336,0.578-0.326,1.041c0.012,0.552-0.427,1.01-0.979,1.021c-0.007,0-0.014,0-0.021,0c-0.543,0-0.989-0.435-1-0.979  c-0.026-1.27,0.478-2.055,0.906-2.492c1.02-1.037,2.472-1.064,2.642-1.063h3.348c0.119-0.017,0.24-0.028,0.363-0.028h8.799  l3.994-7.581c0.197-0.494,2.135-5.588-0.455-8.876c-1.093-1.39-3.626-2.222-5.862-2.955c-0.213-0.07-0.422-0.14-0.629-0.208  c-4.278-1.115-7.87-2.917-10.735-5.402c-0.221-0.191-0.434-0.391-0.646-0.591c-8.434-0.39-18.584-4.015-22.162-16.495  C7.235,37.394,17.481,28.949,22.011,25.64l0.026,0.016c0.802-0.586,1.573-1.096,2.315-1.569c0.932-0.589,1.822-1.124,2.672-1.628  c0.521-0.475,1.131-1.308,0.733-2.398c-0.782-2.135-4.711-1.365-6.491-0.55c-3.715,1.701-6.367,2.289-8.14,1.804l0.483,0.659  c0.195,0.223,0.313,0.516,0.313,0.835c0,0.702-0.569,1.271-1.271,1.271c-0.002,0-0.004,0-0.005,0c-0.317,0-0.634-0.118-0.879-0.352  c-2.028-1.939-4.742-7.007-0.488-12.307c1.666-2.075,3.611-2.511,4.949-2.511c1.736,0,3.028,0.709,3.169,0.79  c0.375,0.214,0.616,0.604,0.639,1.035c0.001,0.017,0,0.034,0,0.051c0.798-0.018,1.685-0.174,2.563-0.604  c2.3-1.125,2.721-2.42,3.971-3.347c-0.313-0.167-0.557-0.459-0.643-0.831c-0.048-0.205-0.229-1.292,0.856-2.576  c1.256-1.484,3.495-1.657,3.896-1.676c0.112-0.01,0.432-0.033,0.909-0.033c1.669,0,5.369,0.284,8.792,2.48  c0.797,0.442,1.643,0.992,2.497,1.719c0.899,0.766,1.809,1.741,2.579,2.95c0.773,1.203,1.377,2.641,1.722,4.136  C48.123,17.1,47.25,20.164,46.35,22.229z"/><text x="0" y="115" fill="#000000" font-size="5px" font-weight="bold" font-family="'Helvetica Neue', Helvetica, Arial-Unicode, Arial, Sans-serif">Created by Cédric Villain</text><text x="0" y="120" fill="#000000" font-size="5px" font-weight="bold" font-family="'Helvetica Neue', Helvetica, Arial-Unicode, Arial, Sans-serif">from the Noun Project</text></svg>